<svg width="16" height="16" viewBox="0 0 16 16" fill="none" xmlns="http://www.w3.org/2000/svg">
<g clip-path="url(#clip0_323_82)">
<path d="M2.66665 5.3335H13.3333V14.0002C13.3333 14.177 13.2631 14.3465 13.1381 14.4716C13.013 14.5966 12.8435 14.6668 12.6666 14.6668H3.33331C3.1565 14.6668 2.98693 14.5966 2.86191 14.4716C2.73688 14.3465 2.66665 14.177 2.66665 14.0002V5.3335ZM3.99998 6.66683V13.3335H12V6.66683H3.99998ZM5.99998 8.00016H7.33331V12.0002H5.99998V8.00016ZM8.66665 8.00016H9.99998V12.0002H8.66665V8.00016ZM4.66665 3.3335V2.00016C4.66665 1.82335 4.73688 1.65378 4.86191 1.52876C4.98693 1.40373 5.1565 1.3335 5.33331 1.3335H10.6666C10.8435 1.3335 11.013 1.40373 11.1381 1.52876C11.2631 1.65378 11.3333 1.82335 11.3333 2.00016V3.3335H14.6666V4.66683H1.33331V3.3335H4.66665ZM5.99998 2.66683V3.3335H9.99998V2.66683H5.99998Z" fill="white"/>
</g>
<defs>
<clipPath id="clip0_323_82">
<rect width="16" height="16" fill="white"/>
</clipPath>
</defs>
</svg>
