<svg width="56" height="56" viewBox="0 0 56 56" fill="none" xmlns="http://www.w3.org/2000/svg">
<rect width="56" height="56" rx="28" fill="#DC2626" fill-opacity="0.1"/>
<g clip-path="url(#clip0_327_94)">
<path d="M18.6667 23.3335H37.3333V38.5002C37.3333 38.8096 37.2104 39.1063 36.9916 39.3251C36.7728 39.5439 36.4761 39.6668 36.1667 39.6668H19.8333C19.5239 39.6668 19.2272 39.5439 19.0084 39.3251C18.7896 39.1063 18.6667 38.8096 18.6667 38.5002V23.3335ZM21 25.6668V37.3335H35V25.6668H21ZM24.5 28.0002H26.8333V35.0002H24.5V28.0002ZM29.1667 28.0002H31.5V35.0002H29.1667V28.0002ZM22.1667 19.8335V17.5002C22.1667 17.1907 22.2896 16.894 22.5084 16.6752C22.7272 16.4564 23.0239 16.3335 23.3333 16.3335H32.6667C32.9761 16.3335 33.2728 16.4564 33.4916 16.6752C33.7104 16.894 33.8333 17.1907 33.8333 17.5002V19.8335H39.6667V22.1668H16.3333V19.8335H22.1667ZM24.5 18.6668V19.8335H31.5V18.6668H24.5Z" fill="#DC2626"/>
</g>
<defs>
<clipPath id="clip0_327_94">
<rect width="28" height="28" fill="white" transform="translate(14 14)"/>
</clipPath>
</defs>
</svg>
