<svg width="16" height="16" viewBox="0 0 16 16" fill="none" xmlns="http://www.w3.org/2000/svg">
<g clip-path="url(#clip0_323_74)">
<path d="M8 2C11.5947 2 14.5853 4.58667 15.2127 8C14.586 11.4133 11.5947 14 8 14C4.40533 14 1.41466 11.4133 0.787331 8C1.414 4.58667 4.40533 2 8 2ZM8 12.6667C9.35964 12.6664 10.6789 12.2045 11.7419 11.3568C12.8049 10.509 13.5486 9.32552 13.8513 8C13.5475 6.67554 12.8033 5.49334 11.7404 4.64668C10.6775 3.80003 9.35887 3.33902 8 3.33902C6.64113 3.33902 5.32246 3.80003 4.25958 4.64668C3.19671 5.49334 2.45251 6.67554 2.14866 8C2.45139 9.32552 3.19511 10.509 4.25809 11.3568C5.32107 12.2045 6.64035 12.6664 8 12.6667V12.6667ZM8 11C7.20435 11 6.44129 10.6839 5.87868 10.1213C5.31607 9.55871 5 8.79565 5 8C5 7.20435 5.31607 6.44129 5.87868 5.87868C6.44129 5.31607 7.20435 5 8 5C8.79565 5 9.55871 5.31607 10.1213 5.87868C10.6839 6.44129 11 7.20435 11 8C11 8.79565 10.6839 9.55871 10.1213 10.1213C9.55871 10.6839 8.79565 11 8 11ZM8 9.66667C8.44203 9.66667 8.86595 9.49107 9.17851 9.17851C9.49107 8.86595 9.66666 8.44203 9.66666 8C9.66666 7.55797 9.49107 7.13405 9.17851 6.82149C8.86595 6.50893 8.44203 6.33333 8 6.33333C7.55797 6.33333 7.13405 6.50893 6.82149 6.82149C6.50893 7.13405 6.33333 7.55797 6.33333 8C6.33333 8.44203 6.50893 8.86595 6.82149 9.17851C7.13405 9.49107 7.55797 9.66667 8 9.66667Z" fill="white"/>
</g>
<defs>
<clipPath id="clip0_323_74">
<rect width="16" height="16" fill="white"/>
</clipPath>
</defs>
</svg>
