<svg width="22" height="22" viewBox="0 0 22 22" fill="none" xmlns="http://www.w3.org/2000/svg">
<g clip-path="url(#clip0_320_78)">
<path d="M11 20.1668C5.93726 20.1668 1.83334 16.0629 1.83334 11.0002C1.83334 5.93741 5.93726 1.8335 11 1.8335C16.0628 1.8335 20.1667 5.93741 20.1667 11.0002C20.1667 16.0629 16.0628 20.1668 11 20.1668ZM10.0833 13.7502V15.5835H11.9167V13.7502H10.0833ZM11.9167 12.2422C12.6534 12.0202 13.2858 11.541 13.6988 10.8918C14.1118 10.2426 14.2779 9.46663 14.1668 8.70526C14.0558 7.94389 13.6749 7.24773 13.0937 6.74358C12.5124 6.23943 11.7694 5.96082 11 5.9585C10.2583 5.95844 9.53945 6.2153 8.96574 6.68541C8.39202 7.15551 7.99885 7.80982 7.85309 8.53708L9.65159 8.89733C9.70263 8.64198 9.82513 8.40636 10.0048 8.21791C10.1846 8.02946 10.4141 7.89591 10.6667 7.83281C10.9194 7.76971 11.1847 7.77965 11.432 7.86147C11.6792 7.94329 11.8981 8.09363 12.0632 8.295C12.2283 8.49636 12.3328 8.74048 12.3646 8.99894C12.3964 9.25739 12.3542 9.51956 12.2428 9.75495C12.1314 9.99033 11.9555 10.1892 11.7355 10.3285C11.5155 10.4679 11.2604 10.5418 11 10.5418C10.7569 10.5418 10.5237 10.6384 10.3518 10.8103C10.1799 10.9822 10.0833 11.2154 10.0833 11.4585V12.8335H11.9167V12.2422Z" fill="white"/>
</g>
<defs>
<clipPath id="clip0_320_78">
<rect width="22" height="22" fill="white"/>
</clipPath>
</defs>
</svg>
