<svg width="98" height="98" viewBox="0 0 98 98" fill="none" xmlns="http://www.w3.org/2000/svg">
<g clip-path="url(#clip0_1238_11624)">
<rect width="98" height="98" rx="49" fill="#E8F0FF"/>
<path d="M9.63528 57L9.63581 116C9.63583 117.657 10.979 119 12.6358 119H85.054C86.7108 119 88.054 117.657 88.054 116V60.9469C88.054 59.2901 86.7108 57.9469 85.054 57.9469H43.229C42.6364 57.9469 42.0572 57.7715 41.5642 57.4426L37.1591 54.5043C36.6662 54.1755 36.0869 54 35.4944 54H12.6353C10.9784 54 9.63527 55.3432 9.63528 57Z" fill="#796CF7"/>
<path d="M16.6845 86.8418C15.1404 86.8418 13.884 85.5991 13.867 84.0552L13.947 26.8487C13.9298 25.2805 15.1962 24 16.7645 24L58.9499 24C60.4953 24 61.7524 25.2449 61.7674 26.7903L61.787 83.9967C61.8022 85.5635 60.5363 86.8418 58.9694 86.8418L16.6845 86.8418Z" fill="url(#paint0_linear_1238_11624)"/>
<g clip-path="url(#clip1_1238_11624)" filter="url(#filter0_d_1238_11624)">
<path d="M26.5571 38.5898H18.5571C18.4245 38.5898 18.2973 38.5372 18.2036 38.4434C18.1098 38.3496 18.0571 38.2225 18.0571 38.0898V29.0898C18.0571 28.9572 18.1098 28.8301 18.2036 28.7363C18.2973 28.6425 18.4245 28.5898 18.5571 28.5898H26.5571C26.6897 28.5898 26.8169 28.6425 26.9107 28.7363C27.0045 28.8301 27.0571 28.9572 27.0571 29.0898V38.0898C27.0571 38.2225 27.0045 38.3496 26.9107 38.4434C26.8169 38.5372 26.6897 38.5898 26.5571 38.5898ZM20.0571 30.5898V32.5898H22.0571V30.5898H20.0571ZM20.0571 33.5898V34.5898H25.0571V33.5898H20.0571ZM20.0571 35.5898V36.5898H25.0571V35.5898H20.0571ZM23.0571 31.0898V32.0898H25.0571V31.0898H23.0571Z" fill="#0980E9"/>
</g>
<g filter="url(#filter1_i_1238_11624)">
<path d="M21.2231 48.5774C20.1338 48.5774 19.2507 47.6943 19.2507 46.605C19.2507 45.5157 20.1338 44.6327 21.2231 44.6327L55.0348 44.6326C56.1241 44.6326 57.0072 45.5156 57.0072 46.6049C57.0072 47.6942 56.1241 48.5773 55.0348 48.5773L21.2231 48.5774Z" fill="#0980E9"/>
<path d="M21.2218 56.1861C20.1325 56.1861 19.2495 55.303 19.2495 54.2137C19.2495 53.1244 20.1325 52.2414 21.2218 52.2414L55.0336 52.2413C56.1229 52.2413 57.0059 53.1243 57.0059 54.2136C57.0059 55.3029 56.1229 56.186 55.0336 56.186L21.2218 56.1861Z" fill="#0980E9"/>
<path d="M21.2237 63.2299C20.1344 63.2299 19.2514 62.3469 19.2514 61.2576C19.2514 60.1683 20.1344 59.2852 21.2237 59.2852L55.0354 59.2851C56.1248 59.2851 57.0078 60.1681 57.0078 61.2575C57.0078 62.3468 56.1248 63.2298 55.0354 63.2298L21.2237 63.2299Z" fill="#0980E9"/>
</g>
<path d="M21.2231 48.5774C20.1338 48.5774 19.2507 47.6943 19.2507 46.605C19.2507 45.5157 20.1338 44.6327 21.2231 44.6327L55.0348 44.6326C56.1241 44.6326 57.0072 45.5156 57.0072 46.6049C57.0072 47.6942 56.1241 48.5773 55.0348 48.5773L21.2231 48.5774Z" stroke="#B3D9EF" stroke-width="0.5"/>
<path d="M21.2218 56.1861C20.1325 56.1861 19.2495 55.303 19.2495 54.2137C19.2495 53.1244 20.1325 52.2414 21.2218 52.2414L55.0336 52.2413C56.1229 52.2413 57.0059 53.1243 57.0059 54.2136C57.0059 55.3029 56.1229 56.186 55.0336 56.186L21.2218 56.1861Z" stroke="#B3D9EF" stroke-width="0.5"/>
<path d="M21.2237 63.2299C20.1344 63.2299 19.2514 62.3469 19.2514 61.2576C19.2514 60.1683 20.1344 59.2852 21.2237 59.2852L55.0354 59.2851C56.1248 59.2851 57.0078 60.1681 57.0078 61.2575C57.0078 62.3468 56.1248 63.2298 55.0354 63.2298L21.2237 63.2299Z" stroke="#B3D9EF" stroke-width="0.5"/>
<g filter="url(#filter2_d_1238_11624)">
<path d="M39.6403 96.71C38.0962 96.71 36.8398 95.4673 36.8228 93.9233L36.9028 36.7168C36.8856 35.1487 38.1521 33.8682 39.7203 33.8682L81.9057 33.8682C83.4511 33.8682 84.7082 35.113 84.7232 36.6584L84.7428 93.8649C84.758 95.4317 83.4921 96.71 81.9253 96.71L39.6403 96.71Z" fill="url(#paint1_linear_1238_11624)"/>
</g>
<g filter="url(#filter3_i_1238_11624)">
<path d="M71.9725 45.6313C70.8832 45.6313 70.0001 44.7482 70.0001 43.6589C70.0001 42.5696 70.8832 41.6865 71.9725 41.6865L77.6078 41.6865C78.6971 41.6865 79.5802 42.5696 79.5802 43.6589C79.5802 44.7482 78.6971 45.6312 77.6078 45.6313L71.9725 45.6313Z" fill="#F6E4F0"/>
<path d="M71.9725 51.8301C70.8831 51.8301 70.0001 50.947 70.0001 49.8577C70.0001 48.7684 70.8832 47.8854 71.9725 47.8854H77.6078C78.6971 47.8854 79.5802 48.7684 79.5802 49.8577C79.5802 50.9471 78.6971 51.8301 77.6078 51.8301L71.9725 51.8301Z" fill="#F6E4F0"/>
<path d="M43.796 69.2997C42.7067 69.2997 41.8237 68.4166 41.8237 67.3273C41.8237 66.238 42.7067 65.3549 43.796 65.3549L77.6078 65.3548C78.6971 65.3548 79.5801 66.2379 79.5801 67.3272C79.5801 68.4165 78.6971 69.2995 77.6078 69.2995L43.796 69.2997Z" fill="#F6E4F0"/>
<path d="M43.7948 76.9083C42.7055 76.9083 41.8224 76.0253 41.8224 74.936C41.8224 73.8467 42.7055 72.9636 43.7948 72.9636L77.6065 72.9635C78.6958 72.9635 79.5789 73.8466 79.5789 74.9359C79.5789 76.0252 78.6958 76.9082 77.6065 76.9082L43.7948 76.9083Z" fill="#F6E4F0"/>
<path d="M43.7966 83.9522C42.7073 83.9522 41.8243 83.0691 41.8243 81.9798C41.8243 80.8905 42.7073 80.0075 43.7966 80.0075L77.6084 80.0073C78.6977 80.0073 79.5807 80.8904 79.5807 81.9797C79.5807 83.069 78.6977 83.9521 77.6084 83.9521L43.7966 83.9522Z" fill="#F6E4F0"/>
</g>
<path d="M71.9725 45.6313C70.8832 45.6313 70.0001 44.7482 70.0001 43.6589C70.0001 42.5696 70.8832 41.6865 71.9725 41.6865L77.6078 41.6865C78.6971 41.6865 79.5802 42.5696 79.5802 43.6589C79.5802 44.7482 78.6971 45.6312 77.6078 45.6313L71.9725 45.6313Z" stroke="#F7C9E3" stroke-opacity="0.5" stroke-width="0.563533"/>
<path d="M71.9725 51.8301C70.8831 51.8301 70.0001 50.947 70.0001 49.8577C70.0001 48.7684 70.8832 47.8854 71.9725 47.8854H77.6078C78.6971 47.8854 79.5802 48.7684 79.5802 49.8577C79.5802 50.9471 78.6971 51.8301 77.6078 51.8301L71.9725 51.8301Z" stroke="#F7C9E3" stroke-opacity="0.5" stroke-width="0.563533"/>
<path d="M43.796 69.2997C42.7067 69.2997 41.8237 68.4166 41.8237 67.3273C41.8237 66.238 42.7067 65.3549 43.796 65.3549L77.6078 65.3548C78.6971 65.3548 79.5801 66.2379 79.5801 67.3272C79.5801 68.4165 78.6971 69.2995 77.6078 69.2995L43.796 69.2997Z" stroke="#F7C9E3" stroke-opacity="0.5" stroke-width="0.563533"/>
<path d="M43.7948 76.9083C42.7055 76.9083 41.8224 76.0253 41.8224 74.936C41.8224 73.8467 42.7055 72.9636 43.7948 72.9636L77.6065 72.9635C78.6958 72.9635 79.5789 73.8466 79.5789 74.9359C79.5789 76.0252 78.6958 76.9082 77.6065 76.9082L43.7948 76.9083Z" stroke="#F7C9E3" stroke-opacity="0.5" stroke-width="0.563533"/>
<path d="M43.7966 83.9522C42.7073 83.9522 41.8243 83.0691 41.8243 81.9798C41.8243 80.8905 42.7073 80.0075 43.7966 80.0075L77.6084 80.0073C78.6977 80.0073 79.5807 80.8904 79.5807 81.9797C79.5807 83.069 78.6977 83.9521 77.6084 83.9521L43.7966 83.9522Z" stroke="#F7C9E3" stroke-opacity="0.5" stroke-width="0.563533"/>
<g filter="url(#filter4_i_1238_11624)">
<g clip-path="url(#clip2_1238_11624)">
<rect x="40.8225" y="39" width="17" height="17" rx="8.5" fill="#FEF3EF"/>
<g clip-path="url(#clip3_1238_11624)" filter="url(#filter5_i_1238_11624)">
<path d="M53.6666 56.6666H44.3333C43.8028 56.6666 43.2941 56.4559 42.919 56.0808C42.544 55.7057 42.3333 55.197 42.3333 54.6666V43.9999C42.3333 43.8231 42.4035 43.6535 42.5285 43.5285C42.6535 43.4035 42.8231 43.3333 42.9999 43.3333H52.3333C52.5101 43.3333 52.6796 43.4035 52.8047 43.5285C52.9297 43.6535 52.9999 43.8231 52.9999 43.9999V51.9999H55.6666V54.6666C55.6666 55.197 55.4559 55.7057 55.0808 56.0808C54.7057 56.4559 54.197 56.6666 53.6666 56.6666ZM52.9999 53.3333V54.6666C52.9999 54.8434 53.0702 55.013 53.1952 55.138C53.3202 55.263 53.4898 55.3333 53.6666 55.3333C53.8434 55.3333 54.013 55.263 54.138 55.138C54.263 55.013 54.3333 54.8434 54.3333 54.6666V53.3333H52.9999ZM44.9999 46.6666V47.9999H50.3333V46.6666H44.9999ZM44.9999 49.3333V50.6666H50.3333V49.3333H44.9999ZM44.9999 51.9999V53.3333H48.3333V51.9999H44.9999Z" fill="#FE7122"/>
</g>
</g>
</g>
<g filter="url(#filter6_i_1238_11624)">
<path d="M6.96609 65.2705C5.35317 65.2705 4.06941 66.6219 4.15214 68.2327L6.63664 116.607C6.71358 118.105 7.95061 119.28 9.4506 119.28H89.559C91.0754 119.28 92.3198 118.08 92.3748 116.565L94.1286 68.1903C94.1864 66.5951 92.9089 65.2705 91.3127 65.2705H89.2719H15.2589H10.8532H6.96609Z" fill="#CBB2EB"/>
</g>
</g>
<defs>
<filter id="filter0_d_1238_11624" x="16.0571" y="27.5898" width="13" height="13" filterUnits="userSpaceOnUse" color-interpolation-filters="sRGB">
<feFlood flood-opacity="0" result="BackgroundImageFix"/>
<feColorMatrix in="SourceAlpha" type="matrix" values="0 0 0 0 0 0 0 0 0 0 0 0 0 0 0 0 0 0 127 0" result="hardAlpha"/>
<feOffset dy="0.5"/>
<feGaussianBlur stdDeviation="0.25"/>
<feComposite in2="hardAlpha" operator="out"/>
<feColorMatrix type="matrix" values="0 0 0 0 0.843137 0 0 0 0 0.941176 0 0 0 0 1 0 0 0 0.5 0"/>
<feBlend mode="normal" in2="BackgroundImageFix" result="effect1_dropShadow_1238_11624"/>
<feBlend mode="normal" in="SourceGraphic" in2="effect1_dropShadow_1238_11624" result="shape"/>
</filter>
<filter id="filter1_i_1238_11624" x="18.9995" y="44.3826" width="38.2583" height="19.5974" filterUnits="userSpaceOnUse" color-interpolation-filters="sRGB">
<feFlood flood-opacity="0" result="BackgroundImageFix"/>
<feBlend mode="normal" in="SourceGraphic" in2="BackgroundImageFix" result="shape"/>
<feColorMatrix in="SourceAlpha" type="matrix" values="0 0 0 0 0 0 0 0 0 0 0 0 0 0 0 0 0 0 127 0" result="hardAlpha"/>
<feOffset dy="1"/>
<feGaussianBlur stdDeviation="0.25"/>
<feComposite in2="hardAlpha" operator="arithmetic" k2="-1" k3="1"/>
<feColorMatrix type="matrix" values="0 0 0 0 0.841667 0 0 0 0 0.941666 0 0 0 0 1 0 0 0 0.5 0"/>
<feBlend mode="normal" in2="shape" result="effect1_innerShadow_1238_11624"/>
</filter>
<filter id="filter2_d_1238_11624" x="34.5686" y="31.614" width="52.4284" height="67.3501" filterUnits="userSpaceOnUse" color-interpolation-filters="sRGB">
<feFlood flood-opacity="0" result="BackgroundImageFix"/>
<feColorMatrix in="SourceAlpha" type="matrix" values="0 0 0 0 0 0 0 0 0 0 0 0 0 0 0 0 0 0 127 0" result="hardAlpha"/>
<feOffset/>
<feGaussianBlur stdDeviation="1.12707"/>
<feComposite in2="hardAlpha" operator="out"/>
<feColorMatrix type="matrix" values="0 0 0 0 0.592157 0 0 0 0 0.278431 0 0 0 0 1 0 0 0 0.24 0"/>
<feBlend mode="normal" in2="BackgroundImageFix" result="effect1_dropShadow_1238_11624"/>
<feBlend mode="normal" in="SourceGraphic" in2="effect1_dropShadow_1238_11624" result="shape"/>
</filter>
<filter id="filter3_i_1238_11624" x="41.5405" y="41.4048" width="38.322" height="43.3291" filterUnits="userSpaceOnUse" color-interpolation-filters="sRGB">
<feFlood flood-opacity="0" result="BackgroundImageFix"/>
<feBlend mode="normal" in="SourceGraphic" in2="BackgroundImageFix" result="shape"/>
<feColorMatrix in="SourceAlpha" type="matrix" values="0 0 0 0 0 0 0 0 0 0 0 0 0 0 0 0 0 0 127 0" result="hardAlpha"/>
<feOffset dy="1"/>
<feGaussianBlur stdDeviation="0.25"/>
<feComposite in2="hardAlpha" operator="arithmetic" k2="-1" k3="1"/>
<feColorMatrix type="matrix" values="0 0 0 0 0.841667 0 0 0 0 0.941666 0 0 0 0 1 0 0 0 0.5 0"/>
<feBlend mode="normal" in2="shape" result="effect1_innerShadow_1238_11624"/>
</filter>
<filter id="filter4_i_1238_11624" x="40.8225" y="39" width="17" height="17.5" filterUnits="userSpaceOnUse" color-interpolation-filters="sRGB">
<feFlood flood-opacity="0" result="BackgroundImageFix"/>
<feBlend mode="normal" in="SourceGraphic" in2="BackgroundImageFix" result="shape"/>
<feColorMatrix in="SourceAlpha" type="matrix" values="0 0 0 0 0 0 0 0 0 0 0 0 0 0 0 0 0 0 127 0" result="hardAlpha"/>
<feOffset dy="1"/>
<feGaussianBlur stdDeviation="0.25"/>
<feComposite in2="hardAlpha" operator="arithmetic" k2="-1" k3="1"/>
<feColorMatrix type="matrix" values="0 0 0 0 1 0 0 0 0 0.924306 0 0 0 0 0.891667 0 0 0 1 0"/>
<feBlend mode="normal" in2="shape" result="effect1_innerShadow_1238_11624"/>
</filter>
<filter id="filter5_i_1238_11624" x="41" y="42" width="16" height="16.53" filterUnits="userSpaceOnUse" color-interpolation-filters="sRGB">
<feFlood flood-opacity="0" result="BackgroundImageFix"/>
<feBlend mode="normal" in="SourceGraphic" in2="BackgroundImageFix" result="shape"/>
<feColorMatrix in="SourceAlpha" type="matrix" values="0 0 0 0 0 0 0 0 0 0 0 0 0 0 0 0 0 0 127 0" result="hardAlpha"/>
<feOffset dy="1.07"/>
<feGaussianBlur stdDeviation="0.265"/>
<feComposite in2="hardAlpha" operator="arithmetic" k2="-1" k3="1"/>
<feColorMatrix type="matrix" values="0 0 0 0 1 0 0 0 0 0.972549 0 0 0 0 0.956863 0 0 0 0.3 0"/>
<feBlend mode="normal" in2="shape" result="effect1_innerShadow_1238_11624"/>
</filter>
<filter id="filter6_i_1238_11624" x="4.14844" y="65.2705" width="89.9819" height="58.01" filterUnits="userSpaceOnUse" color-interpolation-filters="sRGB">
<feFlood flood-opacity="0" result="BackgroundImageFix"/>
<feBlend mode="normal" in="SourceGraphic" in2="BackgroundImageFix" result="shape"/>
<feColorMatrix in="SourceAlpha" type="matrix" values="0 0 0 0 0 0 0 0 0 0 0 0 0 0 0 0 0 0 127 0" result="hardAlpha"/>
<feOffset dy="4"/>
<feGaussianBlur stdDeviation="2"/>
<feComposite in2="hardAlpha" operator="arithmetic" k2="-1" k3="1"/>
<feColorMatrix type="matrix" values="0 0 0 0 0.592157 0 0 0 0 0.278431 0 0 0 0 1 0 0 0 0.24 0"/>
<feBlend mode="normal" in2="shape" result="effect1_innerShadow_1238_11624"/>
</filter>
<linearGradient id="paint0_linear_1238_11624" x1="37.827" y1="35" x2="37.8273" y2="119" gradientUnits="userSpaceOnUse">
<stop stop-color="white"/>
<stop offset="1" stop-color="#B6DBF1"/>
</linearGradient>
<linearGradient id="paint1_linear_1238_11624" x1="60.7831" y1="49.5" x2="60.7834" y2="148" gradientUnits="userSpaceOnUse">
<stop stop-color="white"/>
<stop offset="1" stop-color="#FFDBB9"/>
</linearGradient>
<clipPath id="clip0_1238_11624">
<rect width="98" height="98" rx="49" fill="white"/>
</clipPath>
<clipPath id="clip1_1238_11624">
<rect width="12" height="12" fill="white" transform="translate(16.5571 27.5898)"/>
</clipPath>
<clipPath id="clip2_1238_11624">
<rect x="40.8225" y="39" width="17" height="17" rx="8.5" fill="white"/>
</clipPath>
<clipPath id="clip3_1238_11624">
<rect width="16" height="16" fill="white" transform="translate(41 42)"/>
</clipPath>
</defs>
</svg>
