<svg width="18" height="19" viewBox="0 0 18 19" fill="none" xmlns="http://www.w3.org/2000/svg">
<g clip-path="url(#clip0_1218_11914)">
<path d="M13.5233 12.9628L16.7355 16.1743L15.6743 17.2355L12.4628 14.0233C11.2678 14.9812 9.7815 15.5022 8.25 15.5C4.524 15.5 1.5 12.476 1.5 8.75C1.5 5.024 4.524 2 8.25 2C11.976 2 15 5.024 15 8.75C15.0022 10.2815 14.4812 11.7678 13.5233 12.9628ZM12.0188 12.4063C12.9706 11.4274 13.5022 10.1153 13.5 8.75C13.5 5.849 11.1503 3.5 8.25 3.5C5.349 3.5 3 5.849 3 8.75C3 11.6503 5.349 14 8.25 14C9.61532 14.0022 10.9274 13.4706 11.9063 12.5188L12.0188 12.4063V12.4063Z" fill="white"/>
</g>
<defs>
<clipPath id="clip0_1218_11914">
<rect width="18" height="18" fill="white" transform="translate(0 0.5)"/>
</clipPath>
</defs>
</svg>
