<svg width="22" height="22" viewBox="0 0 22 22" fill="none" xmlns="http://www.w3.org/2000/svg">
<g clip-path="url(#clip0_320_62)">
<path d="M17.0262 12.5684C17.2436 12.5656 17.4513 12.4779 17.6051 12.3242C17.7589 12.1704 17.8465 11.9627 17.8494 11.7453C17.8494 11.2888 17.4836 10.9221 17.0262 10.9221C16.5688 10.9221 16.203 11.2888 16.203 11.7453C16.203 12.2036 16.5697 12.5684 17.0262 12.5684ZM12.9699 12.5684C13.1874 12.5656 13.3951 12.4779 13.5489 12.3242C13.7026 12.1704 13.7903 11.9627 13.7931 11.7453C13.7931 11.2888 13.4264 10.9221 12.9699 10.9221C12.5116 10.9221 12.1468 11.2888 12.1468 11.7453C12.1468 12.2036 12.5125 12.5684 12.9699 12.5684ZM18.9897 17.1884C18.931 17.2211 18.8841 17.2714 18.8557 17.3324C18.8274 17.3933 18.8191 17.4616 18.832 17.5276C18.832 17.5716 18.832 17.6165 18.8549 17.6623C18.9448 18.0446 19.1244 18.6533 19.1244 18.6762C19.1244 18.7431 19.1474 18.788 19.1474 18.8338C19.1474 18.8604 19.1421 18.8867 19.1319 18.9112C19.1217 18.9357 19.1068 18.958 19.088 18.9768C19.0691 18.9955 19.0468 19.0103 19.0222 19.0204C18.9977 19.0305 18.9713 19.0356 18.9448 19.0355C18.8989 19.0355 18.8769 19.0135 18.832 18.9915L17.5038 18.2252C17.4068 18.1718 17.299 18.1411 17.1884 18.1353C17.1215 18.1353 17.0537 18.1353 17.0088 18.1573C16.3781 18.3379 15.7254 18.4278 15.0279 18.4278C11.6729 18.4278 8.97144 16.1755 8.97144 13.3815C8.97144 10.5884 11.6729 8.33525 15.0279 8.33525C18.3819 8.33525 21.0834 10.5884 21.0834 13.3815C21.0834 14.8913 20.273 16.2653 18.9897 17.1893V17.1884ZM15.2836 7.42408C15.1981 7.42124 15.1125 7.41971 15.0269 7.4195C11.2008 7.4195 8.05477 10.0412 8.05477 13.3824C8.05477 13.8903 8.1281 14.3816 8.26377 14.8491H8.18219C7.38126 14.841 6.58487 14.7276 5.81352 14.5118C5.74569 14.4888 5.67785 14.4888 5.61002 14.4888C5.47455 14.4917 5.34229 14.5306 5.22685 14.6016L3.62452 15.5228C3.57869 15.5458 3.53377 15.5687 3.48885 15.5687C3.42343 15.568 3.3609 15.5416 3.31464 15.4954C3.26837 15.4491 3.24207 15.3866 3.24135 15.3212C3.24135 15.2533 3.26335 15.2084 3.28627 15.1406C3.30827 15.1186 3.51177 14.3761 3.62452 13.9269C3.62452 13.8811 3.64652 13.8142 3.64652 13.7693C3.64627 13.6907 3.62786 13.6132 3.59272 13.5429C3.55757 13.4726 3.50665 13.4114 3.44394 13.3641C1.88652 12.2613 0.916687 10.6205 0.916687 8.79817C0.916687 5.44958 4.18919 2.75 8.20419 2.75C11.6554 2.75 14.5567 4.73825 15.2836 7.42317V7.42408ZM10.5591 7.80725C11.0844 7.80725 11.4996 7.37 11.4996 6.86675C11.4996 6.3415 11.0844 5.92625 10.5591 5.92625C10.0339 5.92625 9.6186 6.3415 9.6186 6.86675C9.6186 7.392 10.0339 7.80725 10.5591 7.80725ZM5.73744 7.80725C6.26269 7.80725 6.67885 7.37 6.67885 6.86675C6.67885 6.3415 6.26269 5.92625 5.73744 5.92625C5.2131 5.92625 4.79694 6.3415 4.79694 6.86675C4.79694 7.392 5.2131 7.80725 5.73744 7.80725Z" fill="white"/>
</g>
<defs>
<clipPath id="clip0_320_62">
<rect width="22" height="22" fill="white"/>
</clipPath>
</defs>
</svg>